<?xml version="1.0" encoding="UTF-8" standalone="no"?>
<!-- Created with Inkscape (http://www.inkscape.org/) -->

<svg
   xmlns:dc="http://purl.org/dc/elements/1.1/"
   xmlns:cc="http://creativecommons.org/ns#"
   xmlns:rdf="http://www.w3.org/1999/02/22-rdf-syntax-ns#"
   xmlns:svg="http://www.w3.org/2000/svg"
   xmlns="http://www.w3.org/2000/svg"
   xmlns:sodipodi="http://sodipodi.sourceforge.net/DTD/sodipodi-0.dtd"
   xmlns:inkscape="http://www.inkscape.org/namespaces/inkscape"
   width="120"
   height="120"
   id="svg2"
   version="1.1"
   inkscape:version="0.48.5 r10040"
   sodipodi:docname="mouse.svg">
  <defs
     id="defs4" />
  <sodipodi:namedview
     id="base"
     pagecolor="#ffffff"
     bordercolor="#666666"
     borderopacity="1.0"
     inkscape:pageopacity="0.0"
     inkscape:pageshadow="2"
     inkscape:zoom="2.8284271"
     inkscape:cx="86.393678"
     inkscape:cy="142.89802"
     inkscape:document-units="px"
     inkscape:current-layer="g3093"
     showgrid="false"
     inkscape:window-width="1920"
     inkscape:window-height="1017"
     inkscape:window-x="-8"
     inkscape:window-y="-8"
     inkscape:window-maximized="1" />
  <metadata
     id="metadata7">
    <rdf:RDF>
      <cc:Work
         rdf:about="">
        <dc:format>image/svg+xml</dc:format>
        <dc:type
           rdf:resource="http://purl.org/dc/dcmitype/StillImage" />
        <dc:title />
      </cc:Work>
    </rdf:RDF>
  </metadata>
  <g
     inkscape:label="Layer 1"
     inkscape:groupmode="layer"
     id="layer1"
     transform="translate(0,-932.36218)">
    <g
       id="g3039"
       transform="translate(9.2076124,833.24766)">
      <g
         id="g3062"
         transform="translate(185.24912,37.875167)">
        <flowRoot
           xml:space="preserve"
           id="flowRoot3069"
           style="fill:black;stroke:none;stroke-opacity:1;stroke-width:1px;stroke-linejoin:miter;stroke-linecap:butt;fill-opacity:1;font-family:Sans;font-style:normal;font-weight:normal;font-size:12px;line-height:125%;letter-spacing:0px;word-spacing:0px"><flowRegion
             id="flowRegion3071"><rect
               id="rect3073"
               width="169.20055"
               height="41.921329"
               x="133.84521"
               y="44.23856" /></flowRegion><flowPara
             id="flowPara3075" /></flowRoot>        <flowRoot
           xml:space="preserve"
           id="flowRoot3077"
           style="fill:black;stroke:none;stroke-opacity:1;stroke-width:1px;stroke-linejoin:miter;stroke-linecap:butt;fill-opacity:1;font-family:Sans;font-style:normal;font-weight:normal;font-size:12px;line-height:125%;letter-spacing:0px;word-spacing:0px"><flowRegion
             id="flowRegion3079"><rect
               id="rect3081"
               width="82.327431"
               height="27.274118"
               x="184.35284"
               y="52.319778" /></flowRegion><flowPara
             id="flowPara3083" /></flowRoot>        <g
           id="g3099"
           transform="translate(-109.16517,-26.988709)">
          <g
             id="g3138"
             transform="translate(-86.597737,-91.423756)">
            <g
               id="g3167"
               transform="translate(35.687206,28.459898)">
              <g
                 id="g3109"
                 transform="matrix(0.70710678,-0.70710678,0.70710678,0.70710678,-40.227616,210.34031)"
                 style="fill:#aa4400">
                <g
                   id="g3093"
                   style="fill:#aa4400">
                  <g
                     id="g3117"
                     transform="matrix(1.1164782,0,0,1.1164782,-12.595748,-6.3426844)"
                     style="fill:#ffffff">
                    <g
                       style="fill:#ffffff"
                       id="g3095">
                      <path
                         style="fill:#ffffff"
                         inkscape:connector-curvature="0"
                         d="m 74.578,6.677 c 5.312,7.52 3.808,13.782 -0.071,16.534 -3.28,2.323 -8.311,2.271 -11.583,-2.326 -4.034,-5.666 -9.295,-8.137 -14.066,-6.613 -4.656,1.488 -7.646,6.53 -7.971,13.3 h -3.95 c -9.652,0 -17.504,7.852 -17.504,17.504 v 24.652 c 0,7.112 1.613,12.168 4.148,15.73 v 0.033 h 0.023 c 4.421,6.183 11.637,7.836 18.074,7.836 9.228,0 14.708,-3.363 17.921,-7.836 h 0.074 v -0.106 c 3.463,-4.892 4.25,-11.079 4.25,-15.657 V 45.075 c 0,-9.652 -7.852,-17.504 -17.504,-17.504 h -3.031 c 0.297,-5.634 2.626,-9.767 6.23,-10.918 3.684,-1.181 7.898,0.946 11.269,5.682 4.18,5.869 10.881,5.883 15.066,2.915 4.65,-3.298 6.79,-10.233 1.575,-18.577 l -2.95,0.004 z M 23.581,80.032 C 22.496,77.16 21.933,73.736 21.933,69.727 V 45.075 c 0,-2.45 0.602,-4.759 1.648,-6.804 v 41.761 z m 36.092,-41.97 c 1.113,2.096 1.75,4.48 1.75,7.014 v 24.652 c 0,4.136 -0.595,7.653 -1.75,10.579 V 38.062 z M 41.719,36.676 c 0.785,0 1.093,0.147 1.188,0.21 l 0,0.003 0.003,10.521 c -0.008,0.048 -0.279,0.311 -1.283,0.311 -0.8,0 -1.122,-0.173 -1.189,-0.239 l 10e-4,-10.549 c 0.078,-0.074 0.426,-0.257 1.28,-0.257 z m 4.699,-6.605 c 4.216,0 8.026,1.755 10.754,4.564 v 50.033 c -3.281,4.082 -8.443,6.158 -15.496,6.158 -7.124,0 -12.321,-2.115 -15.597,-6.28 v -49.8 c 2.735,-2.873 6.585,-4.676 10.856,-4.676 h 3.917 v 4.165 c -1.032,0.129 -1.822,0.488 -2.333,1.094 -0.583,0.688 -0.605,1.429 -0.58,1.759 v 10.218 c -0.027,0.332 -0.007,1.084 0.581,1.779 0.43,0.509 1.062,0.834 1.857,1 v 6.605 h 2.5 v -6.604 c 0.793,-0.164 1.432,-0.482 1.878,-0.98 0.628,-0.702 0.665,-1.473 0.651,-1.774 V 37.116 c 0.041,-0.353 0.036,-1.08 -0.512,-1.767 -0.361,-0.451 -0.888,-0.757 -1.541,-0.949 v -4.329 h 3.065 z"
                         id="path3097" />
                    </g>
                  </g>
                </g>
              </g>
            </g>
          </g>
        </g>
      </g>
    </g>
  </g>
</svg>
