<?xml version="1.0" encoding="UTF-8" standalone="no"?>
<!-- Created with Inkscape (http://www.inkscape.org/) -->

<svg
   xmlns:dc="http://purl.org/dc/elements/1.1/"
   xmlns:cc="http://creativecommons.org/ns#"
   xmlns:rdf="http://www.w3.org/1999/02/22-rdf-syntax-ns#"
   xmlns:svg="http://www.w3.org/2000/svg"
   xmlns="http://www.w3.org/2000/svg"
   xmlns:sodipodi="http://sodipodi.sourceforge.net/DTD/sodipodi-0.dtd"
   xmlns:inkscape="http://www.inkscape.org/namespaces/inkscape"
   width="120"
   height="120"
   id="svg2"
   version="1.1"
   inkscape:version="0.48.5 r10040"
   sodipodi:docname="mouse.svg">
  <defs
     id="defs4" />
  <sodipodi:namedview
     id="base"
     pagecolor="#ffffff"
     bordercolor="#666666"
     borderopacity="1.0"
     inkscape:pageopacity="0.0"
     inkscape:pageshadow="2"
     inkscape:zoom="2.8284271"
     inkscape:cx="86.393678"
     inkscape:cy="142.89802"
     inkscape:document-units="px"
     inkscape:current-layer="g3093"
     showgrid="false"
     inkscape:window-width="1920"
     inkscape:window-height="1017"
     inkscape:window-x="-8"
     inkscape:window-y="-8"
     inkscape:window-maximized="1" />
  <metadata
     id="metadata7">
    <rdf:RDF>
      <cc:Work
         rdf:about="">
        <dc:format>image/svg+xml</dc:format>
        <dc:type
           rdf:resource="http://purl.org/dc/dcmitype/StillImage" />
        <dc:title></dc:title>
      </cc:Work>
    </rdf:RDF>
  </metadata>
  <g
     inkscape:label="Layer 1"
     inkscape:groupmode="layer"
     id="layer1"
     transform="translate(0,-932.36218)">
    <g
       id="g3039"
       transform="translate(9.2076124,833.24766)">
      <g
         id="g3062"
         transform="translate(185.24912,37.875167)">
        <flowRoot
           xml:space="preserve"
           id="flowRoot3069"
           style="fill:black;stroke:none;stroke-opacity:1;stroke-width:1px;stroke-linejoin:miter;stroke-linecap:butt;fill-opacity:1;font-family:Sans;font-style:normal;font-weight:normal;font-size:12px;line-height:125%;letter-spacing:0px;word-spacing:0px"><flowRegion
             id="flowRegion3071"><rect
               id="rect3073"
               width="169.20055"
               height="41.921329"
               x="133.84521"
               y="44.23856" /></flowRegion><flowPara
             id="flowPara3075" /></flowRoot>        <flowRoot
           xml:space="preserve"
           id="flowRoot3077"
           style="fill:black;stroke:none;stroke-opacity:1;stroke-width:1px;stroke-linejoin:miter;stroke-linecap:butt;fill-opacity:1;font-family:Sans;font-style:normal;font-weight:normal;font-size:12px;line-height:125%;letter-spacing:0px;word-spacing:0px"><flowRegion
             id="flowRegion3079"><rect
               id="rect3081"
               width="82.327431"
               height="27.274118"
               x="184.35284"
               y="52.319778" /></flowRegion><flowPara
             id="flowPara3083" /></flowRoot>        <g
           id="g3099"
           transform="translate(-109.16517,-26.988709)">
          <g
             id="g3138"
             transform="translate(-86.597737,-91.423756)">
            <g
               id="g3167"
               transform="translate(35.687206,28.459898)">
              <g
                 id="g3109"
                 transform="matrix(0.70710678,-0.70710678,0.70710678,0.70710678,-40.227616,210.34031)"
                 style="fill:#aa4400">
                <g
                   id="g3093"
                   style="fill:#aa4400">
                  <g
                     id="g3139"
                     transform="matrix(0.70710678,0.70710678,-0.70710678,0.70710678,37.226659,-209.69166)">
                    <g
                       id="g3146"
                       transform="matrix(1.0848534,0,0,1.0848534,133.29723,120.92338)"
                       style="fill:#ffffff">
                      <g
                         id="g3123"
                         style="fill:#ffffff">
                        <path
                           style="fill:#ffffff"
                           inkscape:connector-curvature="0"
                           d="m 49.91,4.071 c -25.272,0 -45.833,20.561 -45.833,45.833 0,25.273 20.561,45.833 45.833,45.833 25.272,0 45.833,-20.561 45.833,-45.833 0,-25.273 -20.56,-45.833 -45.833,-45.833 z m 0,88.166 C 26.567,92.237 7.577,73.246 7.577,49.904 7.577,26.562 26.567,7.571 49.91,7.571 c 23.343,0 42.333,18.991 42.333,42.333 0,23.342 -18.99,42.333 -42.333,42.333 z"
                           id="path3125" />
                        <path
                           style="fill:#ffffff"
                           inkscape:connector-curvature="0"
                           d="m 66,32.17 c -0.967,0 -2,0.784 -2,1.75 V 47.488 L 34.61,32.363 C 34.067,32.084 33.388,32.109 32.869,32.426 32.348,32.745 32,33.311 32,33.92 v 31.967 c 0,0.609 0.391,1.176 0.912,1.493 0.279,0.171 0.632,0.257 0.949,0.257 0.273,0 0.48,-0.064 0.731,-0.193 L 64,52.319 v 13.569 c 0,0.967 1.033,1.75 2,1.75 0.967,0 2,-0.783 2,-1.75 V 33.92 c 0,-0.966 -1.033,-1.75 -2,-1.75 z M 36,63.022 V 36.785 L 61.565,49.904 36,63.022 z"
                           id="path3127" />
                      </g>
                    </g>
                  </g>
                </g>
              </g>
            </g>
          </g>
        </g>
      </g>
    </g>
  </g>
</svg>
